<?xml version="1.0" encoding="UTF-8"?><svg id="Layer_1" xmlns="http://www.w3.org/2000/svg" viewBox="0 0 841.89 595.28"><defs><style>.cls-1{fill:#f57e20;}.cls-1,.cls-2,.cls-3,.cls-4{stroke-width:0px;}.cls-2{fill:#3aa9e0;}.cls-2,.cls-3{fill-rule:evenodd;}.cls-3,.cls-4{fill:#357cc0;}</style></defs><path class="cls-4" d="M113.9,241.21v16.21h11.77v11.09h-11.77v37.22c0,2.55.5,4.39,1.51,5.52,1.01,1.13,2.8,1.69,5.39,1.69,1.73,0,3.47-.21,5.24-.62v11.58c-3.41.94-6.7,1.42-9.86,1.42-11.5,0-17.26-6.35-17.26-19.04v-37.78h-10.97v-11.09h10.97v-16.21h14.98Z"/><path class="cls-4" d="M166.96,271.1c-1.97-.33-4.01-.49-6.1-.49-6.86,0-11.48,2.63-13.87,7.89v45.6h-14.97v-66.68h14.3l.37,7.46c3.61-5.79,8.63-8.69,15.04-8.69,2.14,0,3.9.29,5.3.86l-.06,14.05Z"/><path class="cls-4" d="M209.37,324.1c-.66-1.27-1.23-3.35-1.73-6.22-4.77,4.97-10.6,7.46-17.5,7.46s-12.16-1.91-16.39-5.73c-4.23-3.82-6.35-8.54-6.35-14.17,0-7.11,2.64-12.56,7.92-16.36,5.28-3.8,12.83-5.7,22.65-5.7h9.18v-4.38c0-3.45-.97-6.21-2.9-8.29-1.93-2.07-4.87-3.11-8.81-3.11-3.41,0-6.2.85-8.38,2.56-2.18,1.71-3.27,3.87-3.27,6.5h-14.98c0-3.66,1.21-7.08,3.64-10.26s5.72-5.68,9.89-7.49c4.17-1.81,8.82-2.71,13.96-2.71,7.8,0,14.03,1.96,18.67,5.88,4.64,3.92,7.03,9.44,7.15,16.55v30.07c0,6,.84,10.78,2.53,14.36v1.05h-15.28ZM192.91,313.31c2.96,0,5.74-.72,8.35-2.16,2.61-1.44,4.57-3.37,5.89-5.79v-12.57h-8.07c-5.55,0-9.72.97-12.51,2.9-2.79,1.93-4.19,4.66-4.19,8.2,0,2.88.95,5.17,2.87,6.87,1.91,1.71,4.47,2.56,7.67,2.56Z"/><path class="cls-4" d="M246.66,257.42l.43,7.7c4.93-5.96,11.4-8.94,19.41-8.94,13.89,0,20.95,7.95,21.2,23.85v44.06h-14.97v-43.2c0-4.23-.91-7.36-2.74-9.4-1.83-2.03-4.82-3.05-8.97-3.05-6.04,0-10.54,2.73-13.5,8.2v47.45h-14.98v-66.68h14.11Z"/><path class="cls-4" d="M335.28,305.98c0-2.67-1.1-4.7-3.3-6.1-2.2-1.4-5.84-2.63-10.94-3.7-5.09-1.07-9.35-2.42-12.76-4.07-7.48-3.61-11.22-8.85-11.22-15.71,0-5.75,2.42-10.56,7.27-14.42,4.85-3.86,11.01-5.79,18.49-5.79,7.97,0,14.41,1.97,19.32,5.92,4.91,3.94,7.36,9.06,7.36,15.34h-14.98c0-2.87-1.07-5.27-3.2-7.18-2.14-1.91-4.97-2.87-8.5-2.87-3.29,0-5.97.76-8.04,2.28-2.07,1.52-3.11,3.55-3.11,6.1,0,2.3.97,4.09,2.9,5.36,1.93,1.27,5.83,2.56,11.71,3.85,5.88,1.29,10.49,2.83,13.84,4.62,3.35,1.79,5.83,3.93,7.46,6.44,1.62,2.51,2.43,5.55,2.43,9.12,0,6-2.49,10.86-7.46,14.58-4.97,3.72-11.48,5.58-19.53,5.58-5.46,0-10.33-.99-14.61-2.96-4.27-1.97-7.6-4.68-9.98-8.14-2.38-3.45-3.57-7.17-3.57-11.15h14.54c.21,3.53,1.54,6.26,4.01,8.17,2.47,1.91,5.73,2.87,9.8,2.87s6.94-.75,9-2.25c2.05-1.5,3.08-3.46,3.08-5.89Z"/><path class="cls-4" d="M416.38,291.44c0,10.31-2.34,18.54-7.02,24.68-4.68,6.14-10.97,9.21-18.86,9.21-7.31,0-13.17-2.4-17.56-7.21v31.61h-14.97v-92.32h13.8l.62,6.78c4.4-5.34,10.37-8.01,17.93-8.01,8.14,0,14.51,3.03,19.13,9.09,4.62,6.06,6.93,14.47,6.93,25.24v.92ZM401.47,290.14c0-6.66-1.32-11.93-3.97-15.84-2.65-3.9-6.44-5.85-11.37-5.85-6.12,0-10.52,2.53-13.19,7.58v29.58c2.71,5.18,7.15,7.76,13.31,7.76,4.77,0,8.49-1.92,11.18-5.76,2.69-3.84,4.04-9.66,4.04-17.47Z"/><path class="cls-4" d="M525.72,271.1c-1.97-.33-4.01-.49-6.1-.49-6.86,0-11.48,2.63-13.87,7.89v45.6h-14.97v-66.68h14.3l.37,7.46c3.61-5.79,8.63-8.69,15.04-8.69,2.14,0,3.9.29,5.3.86l-.06,14.05Z"/><path class="cls-4" d="M556.39,241.21v16.21h11.77v11.09h-11.77v37.22c0,2.55.5,4.39,1.51,5.52,1.01,1.13,2.8,1.69,5.39,1.69,1.73,0,3.47-.21,5.24-.62v11.58c-3.41.94-6.7,1.42-9.86,1.42-11.5,0-17.26-6.35-17.26-19.04v-37.78h-10.97v-11.09h10.97v-16.21h14.98Z"/><path class="cls-1" d="M593.04,257.42l.43,6.96c4.68-5.46,11.09-8.2,19.23-8.2,8.91,0,15.02,3.41,18.3,10.23,4.85-6.82,11.67-10.23,20.46-10.23,7.35,0,12.83,2.03,16.42,6.1,3.59,4.07,5.43,10.07,5.52,17.99v43.82h-14.98v-43.38c0-4.23-.92-7.33-2.77-9.31-1.85-1.97-4.91-2.96-9.18-2.96-3.41,0-6.19.91-8.35,2.74-2.16,1.83-3.67,4.22-4.53,7.18l.06,45.73h-14.97v-43.88c-.21-7.85-4.21-11.77-12.02-11.77-6,0-10.25,2.44-12.76,7.33v48.31h-14.97v-66.68h14.11Z"/><path class="cls-1" d="M707.67,325.33c-9.49,0-17.18-2.99-23.08-8.97-5.9-5.98-8.84-13.94-8.84-23.88v-1.85c0-6.66,1.28-12.6,3.85-17.84,2.57-5.24,6.17-9.32,10.82-12.23,4.64-2.92,9.82-4.38,15.53-4.38,9.08,0,16.09,2.9,21.04,8.69,4.95,5.79,7.43,13.99,7.43,24.59v6.04h-43.57c.45,5.51,2.29,9.86,5.52,13.06,3.22,3.21,7.28,4.81,12.17,4.81,6.86,0,12.45-2.77,16.76-8.32l8.07,7.7c-2.67,3.99-6.24,7.08-10.69,9.28-4.46,2.2-9.46,3.3-15.01,3.3ZM705.88,268.2c-4.11,0-7.43,1.44-9.95,4.31-2.53,2.88-4.14,6.88-4.84,12.02h28.53v-1.11c-.33-5.01-1.66-8.8-4.01-11.37-2.34-2.57-5.59-3.85-9.74-3.85Z"/><path class="cls-2" d="M487.11,289.88c0-.25.02-.45.02-.81.12-18.15-14.96-32.88-33.39-32.88-.02,0-.04,0-.07,0-.02,0-.04,0-.07,0-18.54,0-33.7,14.73-33.58,32.88,0,.36.01.56.02.81,0,0,0,.07,0,.09.02.56-.56,10.27,8.79,27.38,9.3,17,23.97,31.17,24.77,32.08.02-.02.04-.05.07-.08.02.03.04.06.07.08.8-.91,15.38-15.08,24.63-32.08,9.3-17.11,8.72-26.82,8.74-27.38,0-.02,0-.09,0-.09ZM453.49,310.46c-11.19,0-20.26-9.07-20.26-20.26s9.07-20.26,20.26-20.26,20.26,9.07,20.26,20.26-9.07,20.26-20.26,20.26Z"/><path class="cls-3" d="M487.11,289.92c0-.25.02-.45.02-.81.08-12.31-6.79-23.06-17-28.7-13.1,3.04-25.25,9.95-27.04,11.25-.04.03-.08.06-.12.1.22-.17.46-.31.69-.47-3.69,2.54-6.61,6.03-8.39,10.09,3.28-6.77,10.2-11.44,18.22-11.44,11.19,0,20.26,9.07,20.26,20.26s-9.07,20.26-20.26,20.26c-9.68,0-17.76-6.79-19.77-15.86.59,3.23,1.84,6.23,3.64,8.87-.1-.15-.21-.29-.31-.45,2.76,5.09,14.42,20.46,29.95,31.38,3.88-4.96,7.98-10.8,11.37-17.02,9.3-17.11,8.72-26.82,8.74-27.38,0-.02,0-.09,0-.09Z"/><circle class="cls-1" cx="453.5" cy="290.2" r="11.65"/></svg>