<?xml version="1.0" encoding="UTF-8"?><svg id="Layer_1" xmlns="http://www.w3.org/2000/svg" viewBox="0 0 841.89 595.28"><defs><style>.cls-1{fill:#f57e20;}.cls-1,.cls-2,.cls-3{stroke-width:0px;}.cls-2{fill:#3aa9e0;}.cls-2,.cls-3{fill-rule:evenodd;}.cls-3{fill:#357cc0;}</style></defs><path class="cls-2" d="M598.31,245.18c.02-1.08.07-1.94.08-3.49.51-77.75-64.09-140.87-143.03-140.87-.09,0-.19,0-.28,0-.09,0-.19,0-.28,0-79.41,0-144.39,63.12-143.87,140.87.01,1.55.06,2.4.08,3.49,0,0,0,.29,0,.37.09,2.4-2.42,44,37.67,117.29,39.83,72.81,102.68,133.54,106.12,137.42.09-.09.19-.22.28-.35.1.13.19.26.28.35,3.43-3.88,65.91-64.6,105.5-137.42,39.85-73.29,37.36-114.89,37.45-117.29,0-.09,0-.37,0-.37ZM454.27,333.34c-47.94,0-86.8-38.86-86.8-86.8s38.86-86.8,86.8-86.8,86.8,38.86,86.8,86.8-38.86,86.8-86.8,86.8Z"/><path class="cls-3" d="M598.31,245.34c.02-1.08.07-1.94.08-3.49.35-52.73-29.11-98.81-72.83-122.95-56.14,13.04-108.16,42.62-115.82,48.21-.17.12-.33.26-.5.41.96-.71,1.98-1.34,2.97-2.02-15.8,10.88-28.32,25.84-35.96,43.25,14.06-28.98,43.68-49.01,78.06-49.01,47.94,0,86.8,38.86,86.8,86.8s-38.86,86.8-86.8,86.8c-41.46,0-76.08-29.09-84.69-67.96,2.51,13.83,7.9,26.71,15.6,38.02-.44-.64-.91-1.26-1.33-1.91,11.83,21.79,61.77,87.66,128.29,134.45,16.62-21.23,34.19-46.26,48.69-72.93,39.85-73.29,37.36-114.89,37.45-117.29,0-.09,0-.37,0-.37Z"/><circle class="cls-1" cx="454.31" cy="246.53" r="49.91"/></svg>